<svg width="24" height="24" viewBox="0 0 24 24" fill="none" xmlns="http://www.w3.org/2000/svg">
<path d="M16.9488 2.86515C18.112 1.7024 19.9975 1.7023 21.1607 2.86515C22.3238 4.02831 22.3245 5.9147 21.1617 7.07804L19.065 9.17472L19.2349 9.34464C20.3012 10.4112 20.3012 12.1404 19.2349 13.2069C18.1683 14.2735 16.4382 14.2735 15.3716 13.2069L15.2017 13.037L8.44585 19.7939C7.69434 20.5453 6.65715 20.939 5.59624 20.8769L4.28667 20.7997L3.29936 21.787C3.00648 22.0799 2.53171 22.0799 2.23882 21.787C1.94623 21.4941 1.94603 21.0193 2.23882 20.7265L3.2271 19.7382L3.14897 18.4306C3.0867 17.3696 3.48143 16.3326 4.23296 15.581L10.9888 8.82413L10.8189 8.65421C9.75271 7.58767 9.75264 5.85841 10.8189 4.79191C11.8855 3.72531 13.6156 3.72531 14.6822 4.79191L14.8521 4.96183L16.9488 2.86515ZM5.2935 16.6415C4.84487 17.0902 4.60982 17.7093 4.64702 18.3427L4.70464 19.3212L5.68413 19.3788C6.3174 19.4159 6.9367 19.1819 7.3853 18.7333L14.1412 11.9765L12.0494 9.88468L5.2935 16.6415ZM20.1001 3.9257C19.5227 3.34864 18.5868 3.34873 18.0093 3.9257L14.8521 7.08292L13.6216 5.85246C13.1408 5.37164 12.3603 5.37164 11.8794 5.85246C11.399 6.33317 11.399 7.11291 11.8794 7.59367L16.4322 12.1464C16.913 12.6272 17.6935 12.6272 18.1744 12.1464C18.6548 11.6656 18.6549 10.8859 18.1744 10.4052L16.9439 9.17472L20.1011 6.01749C20.6782 5.43994 20.6775 4.50307 20.1001 3.9257Z" fill="white"/>
</svg>
