<svg width="24" height="24" viewBox="0 0 24 24" fill="none" xmlns="http://www.w3.org/2000/svg">
<path d="M14.0127 11.0586C14.2568 10.8145 14.6524 10.8146 14.8965 11.0586C15.1406 11.3027 15.1406 11.6983 14.8965 11.9424L12.8613 13.9775L14.8906 16.0068C15.1347 16.2509 15.1346 16.6465 14.8906 16.8906C14.6465 17.1347 14.2509 17.1347 14.0068 16.8906L11.9775 14.8613L9.94824 16.8916C9.70416 17.1357 9.30755 17.1357 9.06348 16.8916C8.8196 16.6477 8.81985 16.2519 9.06348 16.0078L11.0928 13.9775L9.05762 11.9424C8.81374 11.6984 8.81399 11.3027 9.05762 11.0586C9.30169 10.8145 9.69831 10.8145 9.94238 11.0586L11.9775 13.0938L14.0127 11.0586Z" fill="white"/>
<path fill-rule="evenodd" clip-rule="evenodd" d="M8.17188 2C8.70221 2.00009 9.21094 2.21092 9.58594 2.58594L10.001 3.00098H17.166C17.4903 3.00105 17.8059 3.10624 18.0654 3.30078L21.3994 5.80078C21.777 6.08407 21.999 6.52891 21.999 7.00098V7.26855C22.597 7.6143 23 8.25962 23 9V19C23 20.0356 22.2128 20.887 21.2041 20.9893L21 21H3L2.7959 20.9893C1.85435 20.8938 1.1062 20.1457 1.01074 19.2041L1 19V4C1.00006 2.89547 1.89547 2 3 2H8.17188ZM3 8.5C2.72389 8.5 2.50006 8.72391 2.5 9V19C2.5 19.2761 2.72386 19.5 3 19.5H21C21.2761 19.5 21.5 19.2761 21.5 19V9C21.4999 8.72391 21.2761 8.5 21 8.5H3ZM14 7H20.999C20.9989 6.84281 20.9246 6.69492 20.7988 6.60059L17.4658 4.10059C17.3794 4.03579 17.274 4.00105 17.166 4.00098H11.001L14 7Z" fill="white"/>
</svg>
